HIERARCHY
ROOT Hips
{
  OFFSET 5.84602e-005 68.8428 3.50346
  CHANNELS 6 Xposition Yposition Zposition Zrotation Xrotation Yrotation
  JOINT Spine
  {
    OFFSET 0 8.597 -4.6522
    CHANNELS 3 Zrotation Xrotation Yrotation
    JOINT Spine1
    {
      OFFSET 0 7.8454 0.4098
      CHANNELS 3 Zrotation Xrotation Yrotation
      JOINT Spine2
      {
        OFFSET 0 9.7078 -2.1609
        CHANNELS 3 Zrotation Xrotation Yrotation
        JOINT Neck
        {
          OFFSET 0 21.8761 -0.4549
          CHANNELS 3 Zrotation Xrotation Yrotation
          JOINT Head
          {
            OFFSET 0 12.3537 3.3602
            CHANNELS 3 Zrotation Xrotation Yrotation
            End Site
            {
              OFFSET 0.0001 18.9506 0.5657
            }
          }
        }
        JOINT LeftShoulder
        {
          OFFSET 2.2086 21.1115 7.2329
          CHANNELS 3 Zrotation Xrotation Yrotation
          JOINT LeftArm
          {
            OFFSET 13.1193 3.0282 -4.8998
            CHANNELS 3 Zrotation Xrotation Yrotation
            JOINT LeftForeArm
            {
              OFFSET 27.4081 -0.0973053 -0.2375
              CHANNELS 3 Zrotation Xrotation Yrotation
              JOINT LeftHand
              {
                OFFSET 22.8641 0.0662994 -0.1369
                CHANNELS 3 Zrotation Xrotation Yrotation
                JOINT LeftHandIndex1
                {
                  OFFSET 8.8614 0.775009 2.4612
                  CHANNELS 3 Zrotation Xrotation Yrotation
                  JOINT LeftHandIndex2
                  {
                    OFFSET 3.3146 -0.808304 0.5841
                    CHANNELS 3 Zrotation Xrotation Yrotation
                    JOINT LeftHandIndex3
                    {
                      OFFSET 2.2628 -0.552002 0.3989
                      CHANNELS 3 Zrotation Xrotation Yrotation
                      End Site
                      {
                        OFFSET 1.6102 -0.4807 0.2612
                      }
                    }
                  }
                }
                JOINT LeftHandMiddle1
                {
                  OFFSET 8.9937 0.895004 0.2143
                  CHANNELS 3 Zrotation Xrotation Yrotation
                  JOINT LeftHandMiddle2
                  {
                    OFFSET 4.0984 0.0113983 -0.0242
                    CHANNELS 3 Zrotation Xrotation Yrotation
                    JOINT LeftHandMiddle3
                    {
                      OFFSET 2.2716 0.00689697 -0.0138001
                      CHANNELS 3 Zrotation Xrotation Yrotation
                      End Site
                      {
                        OFFSET 2.0404 -0.1441 0.0027
                      }
                    }
                  }
                }
                JOINT LeftHandRing1
                {
                  OFFSET 8.5234 0.597198 -2.0164
                  CHANNELS 3 Zrotation Xrotation Yrotation
                  JOINT LeftHandRing2
                  {
                    OFFSET 3.7188 -0.188293 -0.2328
                    CHANNELS 3 Zrotation Xrotation Yrotation
                    JOINT LeftHandRing3
                    {
                      OFFSET 2.1191 -0.106598 -0.1332
                      CHANNELS 3 Zrotation Xrotation Yrotation
                      End Site
                      {
                        OFFSET 1.8737 -0.2304 -0.0886
                      }
                    }
                  }
                }
                JOINT LeftHandPinky1
                {
                  OFFSET 7.9094 -0.601089 -3.4825
                  CHANNELS 3 Zrotation Xrotation Yrotation
                  JOINT LeftHandPinky2
                  {
                    OFFSET 2.2874 -0.477005 -0.6314
                    CHANNELS 3 Zrotation Xrotation Yrotation
                    JOINT LeftHandPinky3
                    {
                      OFFSET 1.6774 -0.349396 -0.4633
                      CHANNELS 3 Zrotation Xrotation Yrotation
                      End Site
                      {
                        OFFSET 1.4888 -0.4091 -0.3416
                      }
                    }
                  }
                }
                JOINT LeftHandThumb1
                {
                  OFFSET 1.833 -1.3875 1.3896
                  CHANNELS 3 Zrotation Xrotation Yrotation
                  JOINT LeftHandThumb2
                  {
                    OFFSET 3.4129 -1.121 2.5732
                    CHANNELS 3 Zrotation Xrotation Yrotation
                    JOINT LeftHandThumb3
                    {
                      OFFSET 2.2474 -0.804199 1.6192
                      CHANNELS 3 Zrotation Xrotation Yrotation
                      End Site
                      {
                        OFFSET 1.6527 -0.5689 1.1317
                      }
                    }
                  }
                }
              }
            }
          }
        }
        JOINT RightShoulder
        {
          OFFSET -2.2086 21.1115 7.2329
          CHANNELS 3 Zrotation Xrotation Yrotation
          JOINT RightArm
          {
            OFFSET -13.1216 3.0287 -4.9007
            CHANNELS 3 Zrotation Xrotation Yrotation
            JOINT RightForeArm
            {
              OFFSET -27.4081 -0.0973053 -0.2375
              CHANNELS 3 Zrotation Xrotation Yrotation
              JOINT RightHand
              {
                OFFSET -22.8641 0.0664063 -0.1369
                CHANNELS 3 Zrotation Xrotation Yrotation
                JOINT RightHandIndex1
                {
                  OFFSET -8.8614 0.774994 2.4612
                  CHANNELS 3 Zrotation Xrotation Yrotation
                  JOINT RightHandIndex2
                  {
                    OFFSET -3.3146 -0.808304 0.5841
                    CHANNELS 3 Zrotation Xrotation Yrotation
                    JOINT RightHandIndex3
                    {
                      OFFSET -2.2628 -0.552002 0.3989
                      CHANNELS 3 Zrotation Xrotation Yrotation
                      End Site
                      {
                        OFFSET -1.6102 -0.4807 0.2612
                      }
                    }
                  }
                }
                JOINT RightHandMiddle1
                {
                  OFFSET -8.9937 0.894989 0.2143
                  CHANNELS 3 Zrotation Xrotation Yrotation
                  JOINT RightHandMiddle2
                  {
                    OFFSET -4.0984 0.0113983 -0.0242
                    CHANNELS 3 Zrotation Xrotation Yrotation
                    JOINT RightHandMiddle3
                    {
                      OFFSET -2.2716 0.00691223 -0.0138001
                      CHANNELS 3 Zrotation Xrotation Yrotation
                      End Site
                      {
                        OFFSET -2.0404 -0.1441 0.0027
                      }
                    }
                  }
                }
                JOINT RightHandRing1
                {
                  OFFSET -8.5234 0.597198 -2.0164
                  CHANNELS 3 Zrotation Xrotation Yrotation
                  JOINT RightHandRing2
                  {
                    OFFSET -3.7188 -0.188309 -0.2328
                    CHANNELS 3 Zrotation Xrotation Yrotation
                    JOINT RightHandRing3
                    {
                      OFFSET -2.1191 -0.106598 -0.1332
                      CHANNELS 3 Zrotation Xrotation Yrotation
                      End Site
                      {
                        OFFSET -1.8737 -0.2304 -0.0886
                      }
                    }
                  }
                }
                JOINT RightHandPinky1
                {
                  OFFSET -7.9094 -0.601105 -3.4825
                  CHANNELS 3 Zrotation Xrotation Yrotation
                  JOINT RightHandPinky2
                  {
                    OFFSET -2.2874 -0.477005 -0.6314
                    CHANNELS 3 Zrotation Xrotation Yrotation
                    JOINT RightHandPinky3
                    {
                      OFFSET -1.6774 -0.349396 -0.4633
                      CHANNELS 3 Zrotation Xrotation Yrotation
                      End Site
                      {
                        OFFSET -1.4888 -0.4091 -0.3416
                      }
                    }
                  }
                }
                JOINT RightHandThumb1
                {
                  OFFSET -1.833 -1.38751 1.3896
                  CHANNELS 3 Zrotation Xrotation Yrotation
                  JOINT RightHandThumb2
                  {
                    OFFSET -3.41299 -1.12099 2.5732
                    CHANNELS 3 Zrotation Xrotation Yrotation
                    JOINT RightHandThumb3
                    {
                      OFFSET -2.24741 -0.804108 1.6192
                      CHANNELS 3 Zrotation Xrotation Yrotation
                      End Site
                      {
                        OFFSET -1.6527 -0.5689 1.1317
                      }
                    }
                  }
                }
              }
            }
          }
        }
      }
    }
  }
  JOINT RightUpLeg
  {
    OFFSET -9.1966 3.8861 -0.7581
    CHANNELS 3 Zrotation Xrotation Yrotation
    JOINT RightLeg
    {
      OFFSET -0.7359 -41.0265 0
      CHANNELS 3 Zrotation Xrotation Yrotation
      JOINT RightFoot
      {
        OFFSET 0 -40.2855 0
        CHANNELS 3 Zrotation Xrotation Yrotation
        JOINT RightToeBase
        {
          OFFSET 0 -5.6122 11.7359
          CHANNELS 3 Zrotation Xrotation Yrotation
          End Site
          {
            OFFSET 0 0 7.8731
          }
        }
      }
    }
  }
  JOINT LeftUpLeg
  {
    OFFSET 9.1965 3.8864 -0.7581
    CHANNELS 3 Zrotation Xrotation Yrotation
    JOINT LeftLeg
    {
      OFFSET 0.7359 -41.0268 0
      CHANNELS 3 Zrotation Xrotation Yrotation
      JOINT LeftFoot
      {
        OFFSET 0 -40.2855 0
        CHANNELS 3 Zrotation Xrotation Yrotation
        JOINT LeftToeBase
        {
          OFFSET 0 -5.6122 11.7359
          CHANNELS 3 Zrotation Xrotation Yrotation
          End Site
          {
            OFFSET 0 0 7.8731
          }
        }
      }
    }
  }
}
MOTION
Frames:	4
Frame Time:	0.0333333
5.84602e-005 68.8428 3.50346 0 0 -0 0 0 -0 0 0 -0 0 0 -0 0 0 -0 0 0 -0 0 0 -0 0 0 -0 0 0 -0 0 0 -0 0 0 -0 0 0 -0 0 0 -0 0 0 -0 -0.0146107 -8.87603e-005 -2.63497e-007 2.99804e-018 -2.42657e-020 -1.42182e-022 0 0 -0 -0.0187562 -0.001176 5.858e-005 5.06224e-018 3.88251e-019 1.21329e-020 0 0 -0 -0.012269 -0.00324817 0.000675346 -1.74678e-018 3.88251e-019 -0 0 0 -0 0 0 -0 0 0 -0 0 0 -0 0 0 -0 0 0 -0 0 0 -0 0 0 -0 0 0 -0 0 0 -0 0 0 -0 0.0149955 -9.10982e-005 2.64101e-007 -9.69331e-018 1.21329e-020 -4.7394e-023 0 0 -0 0.0189956 -0.00119102 -5.96516e-005 -5.41541e-019 0 2.42657e-020 0 0 -0 0.0122698 -0.00324857 -0.000673756 -2.00796e-019 0 -1.94126e-019 0 0 -0 0 0 -0 0 0 -0 3.39842 1.33031 -0.0637918 -5.65207e-008 0.834868 -0.000436188 -3.39935 -2.16518 -0.0642563 -8.89002e-024 -1.18485e-023 -1.48106e-024 -3.39844 1.35642 0.0640283 -3.18788e-007 0.782166 -0.000588827 3.39931 -2.13858 0.0634662 1.1399e-023 0 -0 
-0.000299982 2.23071 6.29312 -180 -89.9981 -180 -0.0965471 4.71971 -0.149039 -0.181657 9.43965 -0.29156 -0.181657 9.43967 -0.291559 1.15971e-006 17.9949 -2.83955e-006 1.61137e-007 8.99155 2.47299e-007 -9.00483 6.07974 2.16367 -65.7896 5.87542 -25.503 -11.0325 -0.520415 -62.0106 -13.578 21.5023 3.70263 2.71025e-007 7.00849e-007 -3.99593e-007 5.4205e-007 1.4017e-006 -7.99186e-007 2.71025e-007 7.00849e-007 -3.99593e-007 2.71025e-007 7.00849e-007 -3.99593e-007 -0.0146103 -8.76447e-005 5.39391e-007 2.71016e-007 7.009e-007 -3.99504e-007 2.71025e-007 7.00849e-007 -3.99593e-007 -0.0187701 -0.00117553 5.03405e-005 2.7101e-007 7.00914e-007 -3.99481e-007 2.71025e-007 7.00849e-007 -3.99593e-007 -0.0122961 -0.00325571 0.000676563 2.7101e-007 7.00888e-007 -3.99525e-007 2.71025e-007 7.00849e-007 -3.99593e-007 5.4205e-007 1.4017e-006 -7.99186e-007 2.71025e-007 7.00849e-007 -3.99593e-007 8.96671 5.95557 -2.09552 65.7869 6.00833 25.4736 11.0758 -0.5799 62.3228 13.894 21.9647 -4.37203 1.59028e-015 -3.18055e-015 3.18055e-015 -3.06068e-007 -2.3321e-007 3.58639e-006 2.81073e-007 -6.93957e-007 -4.05281e-007 1.59028e-015 -3.18055e-015 3.18055e-015 0.014997 -8.87982e-005 -2.33033e-007 2.81064e-007 -6.9401e-007 -4.0519e-007 1.59028e-015 -3.18055e-015 3.18055e-015 0.0190057 -0.00119134 -5.45337e-005 2.81058e-007 -6.94023e-007 -4.05169e-007 1.59028e-015 -3.18055e-015 3.18055e-015 0.0122636 -0.00324427 -0.000677128 2.81059e-007 -6.93997e-007 -4.05214e-007 1.59028e-015 -3.18055e-015 3.18055e-015 -3.06068e-007 -2.3321e-007 3.58639e-006 2.81073e-007 -6.93957e-007 -4.05281e-007 5.20306 0.520693 7.47043 -2.55654 12.7837 0.0216606 -3.89246 11.4012 -9.99225 7.68758e-007 1.84546e-008 6.18248e-009 -5.11415 0.768154 -10.5987 1.85789 12.4821 0.132649 3.60002 11.2426 13.0675 -1.77747e-007 9.1611e-009 1.17731e-007 
-0.000299984 2.23071 6.29312 -180 -89.9981 -180 -0.0967612 4.80764 -0.148963 -0.181893 9.61551 -0.291291 -0.181893 9.61553 -0.291291 -0.259206 17.7628 0.0449038 0.0454774 8.85056 0.0452011 -9.01962 5.74969 1.91601 -65.5014 5.69766 -25.4901 -10.9449 -0.683892 -61.8881 -13.3037 21.563 2.72344 1.09665e-006 9.2746e-007 1.19881e-006 5.15969e-006 -3.04417e-010 6.70597e-006 1.27222e-014 -1.59028e-015 -1.90833e-014 1.09665e-006 9.2746e-007 1.19881e-006 -0.014595 -8.75643e-005 1.46745e-005 2.63929e-006 8.70139e-007 3.35309e-006 1.09665e-006 9.2746e-007 1.19881e-006 -0.018755 -0.00117769 6.24069e-005 1.59028e-015 3.18055e-015 3.18055e-015 1.09665e-006 9.2746e-007 1.19881e-006 -0.0122336 -0.00323674 0.000678368 -2.38542e-015 1.59028e-015 -3.18055e-015 1.09665e-006 9.2746e-007 1.19881e-006 5.15969e-006 -3.04417e-010 6.70597e-006 1.27222e-014 -1.59028e-015 -1.90833e-014 9.1651 5.74251 -1.7395 65.4626 5.80568 25.4824 10.9682 -0.782232 62.1349 13.4967 22.1772 -3.31116 7.19463e-007 3.5494e-007 2.15827e-006 -5.5721e-007 1.3886e-006 8.14096e-007 -1.27667e-006 1.03366e-006 -1.34417e-006 7.19463e-007 3.5494e-007 2.15827e-006 0.0149666 -9.15526e-005 3.02622e-006 -2.78597e-007 6.94354e-007 4.06957e-007 7.19463e-007 3.5494e-007 2.15827e-006 0.0189536 -0.00118809 -5.90435e-005 -1.27411e-006 1.03328e-006 -1.34434e-006 7.19463e-007 3.5494e-007 2.15827e-006 0.0122133 -0.0032362 -0.000675815 -1.27505e-006 1.03307e-006 -1.34434e-006 7.19463e-007 3.5494e-007 2.15827e-006 -5.5721e-007 1.3886e-006 8.14096e-007 -1.27667e-006 1.03366e-006 -1.34417e-006 5.20306 0.52066 7.47043 -2.55654 12.7837 0.0216603 -3.89246 11.4011 -9.99225 2.33688e-007 -8.06653e-009 3.56714e-007 -5.11874 0.75483 -10.5987 1.85815 12.518 0.13636 3.53746 11.3794 12.8345 -6.47785e-007 -9.63809e-009 -5.94304e-007 
-0.000299982 2.23071 6.29312 -180 -89.9981 -180 -0.0969701 4.89589 -0.148879 -0.182122 9.79203 -0.291009 -0.182121 9.79206 -0.291009 -0.518042 17.5308 0.0886733 0.0910641 8.70957 0.0905114 -9.03583 5.41961 1.66835 -65.2132 5.51993 -25.4762 -10.8569 -0.847187 -61.7653 -13.0278 21.6194 1.74253 -8.6961e-007 -2.68659e-007 -1.5235e-006 4.49272e-007 -3.21462e-007 -8.427e-007 -3.97569e-015 -4.77083e-015 -0 -8.6961e-007 -2.68659e-007 -1.5235e-006 -0.0145764 -8.59678e-005 3.35743e-006 -8.6763e-007 -2.68453e-007 -1.52353e-006 -8.6961e-007 -2.68659e-007 -1.5235e-006 -0.0187818 -0.00117916 5.49051e-005 8.67073e-007 2.68248e-007 1.52354e-006 -8.6961e-007 -2.68659e-007 -1.5235e-006 -0.0122926 -0.00325583 0.00068017 -3.97569e-015 -9.54166e-015 3.18055e-015 -8.6961e-007 -2.68659e-007 -1.5235e-006 4.49272e-007 -3.21462e-007 -8.427e-007 -3.97569e-015 -4.77083e-015 -0 9.36479 5.53064 -1.38277 65.1385 5.60293 25.4901 10.8599 -0.984178 61.9466 13.0941 22.3831 -2.2458 -2.76115e-007 6.94625e-007 4.08797e-007 5.52229e-007 -1.38925e-006 -8.17594e-007 -5.52229e-007 1.38925e-006 8.17594e-007 -2.76115e-007 6.94625e-007 4.08797e-007 0.015009 -9.38818e-005 -2.33993e-006 -5.52214e-007 1.38936e-006 8.17412e-007 -2.76115e-007 6.94625e-007 4.08797e-007 0.0189757 -0.00119248 -5.8389e-005 -5.52203e-007 1.38938e-006 8.1737e-007 -2.76115e-007 6.94625e-007 4.08797e-007 0.0123154 -0.00326479 -0.000675643 -5.52202e-007 1.38933e-006 8.1746e-007 -2.76115e-007 6.94625e-007 4.08797e-007 5.52229e-007 -1.38925e-006 -8.17594e-007 -5.52229e-007 1.38925e-006 8.17594e-007 5.20306 0.520693 7.47043 -2.55654 12.7837 0.0216579 -3.89246 11.4012 -9.99225 8.91785e-007 4.42019e-008 -5.84219e-007 -5.12333 0.741332 -10.5987 1.85841 12.5543 0.140063 3.47549 11.5164 12.6014 -7.83378e-007 1.69577e-005 -1.0784e-006 
